HIERARCHY
ROOT mixamorig:Hips
{
	OFFSET 0.000000 201.639420 0.000000
	CHANNELS 6 Xposition Yposition Zposition Xrotation Yrotation Zrotation
	JOINT mixamorig:Spine
	{
		OFFSET 0.006200 19.524994 -2.481800
		CHANNELS 3 Xrotation Yrotation Zrotation
		JOINT mixamorig:Spine1
		{
			OFFSET -0.000900 22.835007 -2.825400
			CHANNELS 3 Xrotation Yrotation Zrotation
			JOINT mixamorig:Spine2
			{
				OFFSET -0.020600 26.552490 -3.193300
				CHANNELS 3 Xrotation Yrotation Zrotation
				JOINT mixamorig:Neck
				{
					OFFSET -0.060000 30.701813 1.352200
					CHANNELS 3 Xrotation Yrotation Zrotation
					JOINT mixamorig:Head
					{
						OFFSET -0.087200 22.547607 3.670900
						CHANNELS 3 Xrotation Yrotation Zrotation
						JOINT mixamorig:HeadTop_End
						{
							OFFSET -0.830600 40.355194 7.893500
							CHANNELS 3 Xrotation Yrotation Zrotation
							End Site
							{
								OFFSET 0.000000 30.592346 0.000000
							}
						}
						JOINT mixamorig:RightEye
						{
							OFFSET -6.302100 18.118591 16.197100
							CHANNELS 3 Xrotation Yrotation Zrotation
							End Site
							{
								OFFSET 0.000000 30.592346 0.000000
							}
						}
						JOINT mixamorig:LeftEye
						{
							OFFSET 6.741500 18.382690 16.401899
							CHANNELS 3 Xrotation Yrotation Zrotation
							End Site
							{
								OFFSET 0.000000 30.592346 0.000000
							}
						}
					}
				}
				JOINT mixamorig:LeftShoulder
				{
					OFFSET 11.924900 18.230499 1.425400
					CHANNELS 3 Xrotation Yrotation Zrotation
					JOINT mixamorig:LeftArm
					{
						OFFSET 25.435989 -0.697632 -5.229300
						CHANNELS 3 Xrotation Yrotation Zrotation
						JOINT mixamorig:LeftForeArm
						{
							OFFSET 54.684776 0.000000 0.000000
							CHANNELS 3 Xrotation Yrotation Zrotation
							JOINT mixamorig:LeftHand
							{
								OFFSET 55.098175 0.000000 0.000000
								CHANNELS 3 Xrotation Yrotation Zrotation
								JOINT mixamorig:LeftHandMiddle1
								{
									OFFSET 23.369751 0.000000 0.000000
									CHANNELS 3 Xrotation Yrotation Zrotation
									JOINT mixamorig:LeftHandMiddle2
									{
										OFFSET 6.378677 0.000000 0.000000
										CHANNELS 3 Xrotation Yrotation Zrotation
										JOINT mixamorig:LeftHandMiddle3
										{
											OFFSET 6.148331 0.000000 0.000000
											CHANNELS 3 Xrotation Yrotation Zrotation
											JOINT mixamorig:LeftHandMiddle4
											{
												OFFSET 6.582504 0.000000 0.000000
												CHANNELS 3 Xrotation Yrotation Zrotation
												End Site
												{
													OFFSET -1.168900 6.395691 1.028606
												}
											}
										}
									}
								}
								JOINT mixamorig:LeftHandThumb1
								{
									OFFSET 7.235672 -3.848206 5.434273
									CHANNELS 3 Xrotation Yrotation Zrotation
									JOINT mixamorig:LeftHandThumb2
									{
										OFFSET 6.568451 -3.792297 3.792300
										CHANNELS 3 Xrotation Yrotation Zrotation
										JOINT mixamorig:LeftHandThumb3
										{
											OFFSET 6.063080 -3.500519 3.500518
											CHANNELS 3 Xrotation Yrotation Zrotation
											JOINT mixamorig:LeftHandThumb4
											{
												OFFSET 4.793182 -2.767334 2.767349
												CHANNELS 3 Xrotation Yrotation Zrotation
												End Site
												{
													OFFSET 0.101639 6.054260 1.275483
												}
											}
										}
									}
								}
								JOINT mixamorig:LeftHandIndex1
								{
									OFFSET 23.101074 -0.309540 4.992809
									CHANNELS 3 Xrotation Yrotation Zrotation
									JOINT mixamorig:LeftHandIndex2
									{
										OFFSET 6.226883 0.000000 0.000000
										CHANNELS 3 Xrotation Yrotation Zrotation
										JOINT mixamorig:LeftHandIndex3
										{
											OFFSET 6.094330 0.000000 0.000000
											CHANNELS 3 Xrotation Yrotation Zrotation
											JOINT mixamorig:LeftHandIndex4
											{
												OFFSET 5.482605 0.000000 0.000000
												CHANNELS 3 Xrotation Yrotation Zrotation
												End Site
												{
													OFFSET -1.427902 5.233032 0.797164
												}
											}
										}
									}
								}
								JOINT mixamorig:LeftHandRing1
								{
									OFFSET 22.299240 0.021149 -3.964172
									CHANNELS 3 Xrotation Yrotation Zrotation
									JOINT mixamorig:LeftHandRing2
									{
										OFFSET 6.321869 0.000000 0.000000
										CHANNELS 3 Xrotation Yrotation Zrotation
										JOINT mixamorig:LeftHandRing3
										{
											OFFSET 5.899796 0.000000 0.000000
											CHANNELS 3 Xrotation Yrotation Zrotation
											JOINT mixamorig:LeftHandRing4
											{
												OFFSET 6.517899 0.000000 0.000000
												CHANNELS 3 Xrotation Yrotation Zrotation
												End Site
												{
													OFFSET -1.637299 6.232208 0.980890
												}
											}
										}
									}
								}
								JOINT mixamorig:LeftHandPinky1
								{
									OFFSET 20.463791 -0.302338 -8.562233
									CHANNELS 3 Xrotation Yrotation Zrotation
									JOINT mixamorig:LeftHandPinky2
									{
										OFFSET 6.908646 0.000000 0.000000
										CHANNELS 3 Xrotation Yrotation Zrotation
										JOINT mixamorig:LeftHandPinky3
										{
											OFFSET 4.622849 0.000000 0.000000
											CHANNELS 3 Xrotation Yrotation Zrotation
											JOINT mixamorig:LeftHandPinky4
											{
												OFFSET 5.216080 0.000000 0.000000
												CHANNELS 3 Xrotation Yrotation Zrotation
												End Site
												{
													OFFSET -0.606308 5.116241 0.814926
												}
											}
										}
									}
								}
							}
						}
					}
				}
				JOINT mixamorig:RightShoulder
				{
					OFFSET -12.001300 18.284088 1.348900
					CHANNELS 3 Xrotation Yrotation Zrotation
					JOINT mixamorig:RightArm
					{
						OFFSET -25.308500 -0.751312 -5.164599
						CHANNELS 3 Xrotation Yrotation Zrotation
						JOINT mixamorig:RightForeArm
						{
							OFFSET -54.684429 0.000000 0.000000
							CHANNELS 3 Xrotation Yrotation Zrotation
							JOINT mixamorig:RightHand
							{
								OFFSET -55.150291 0.000000 0.000000
								CHANNELS 3 Xrotation Yrotation Zrotation
								JOINT mixamorig:RightHandMiddle1
								{
									OFFSET -23.317566 0.000000 0.000000
									CHANNELS 3 Xrotation Yrotation Zrotation
									JOINT mixamorig:RightHandMiddle2
									{
										OFFSET -6.378403 0.000000 0.000000
										CHANNELS 3 Xrotation Yrotation Zrotation
										JOINT mixamorig:RightHandMiddle3
										{
											OFFSET -6.148193 0.000000 0.000000
											CHANNELS 3 Xrotation Yrotation Zrotation
											JOINT mixamorig:RightHandMiddle4
											{
												OFFSET -6.583389 0.000000 0.000000
												CHANNELS 3 Xrotation Yrotation Zrotation
												End Site
												{
													OFFSET 1.171692 6.395905 1.029786
												}
											}
										}
									}
								}
								JOINT mixamorig:RightHandThumb1
								{
									OFFSET -7.190521 -3.860474 5.435846
									CHANNELS 3 Xrotation Yrotation Zrotation
									JOINT mixamorig:RightHandThumb2
									{
										OFFSET -6.567429 -3.791718 3.791708
										CHANNELS 3 Xrotation Yrotation Zrotation
										JOINT mixamorig:RightHandThumb3
										{
											OFFSET -6.062469 -3.500153 3.500166
											CHANNELS 3 Xrotation Yrotation Zrotation
											JOINT mixamorig:RightHandThumb4
											{
												OFFSET -4.792618 -2.767029 2.767022
												CHANNELS 3 Xrotation Yrotation Zrotation
												End Site
												{
													OFFSET -0.100327 6.053253 1.276754
												}
											}
										}
									}
								}
								JOINT mixamorig:RightHandIndex1
								{
									OFFSET -23.048981 -0.310791 4.992554
									CHANNELS 3 Xrotation Yrotation Zrotation
									JOINT mixamorig:RightHandIndex2
									{
										OFFSET -6.227539 0.000000 0.000000
										CHANNELS 3 Xrotation Yrotation Zrotation
										JOINT mixamorig:RightHandIndex3
										{
											OFFSET -6.095047 0.000000 0.000000
											CHANNELS 3 Xrotation Yrotation Zrotation
											JOINT mixamorig:RightHandIndex4
											{
												OFFSET -5.484772 0.000000 0.000000
												CHANNELS 3 Xrotation Yrotation Zrotation
												End Site
												{
													OFFSET 1.420593 5.237305 0.797056
												}
											}
										}
									}
								}
								JOINT mixamorig:RightHandRing1
								{
									OFFSET -22.246323 0.020569 -3.963762
									CHANNELS 3 Xrotation Yrotation Zrotation
									JOINT mixamorig:RightHandRing2
									{
										OFFSET -6.322128 0.000000 0.000000
										CHANNELS 3 Xrotation Yrotation Zrotation
										JOINT mixamorig:RightHandRing3
										{
											OFFSET -5.900024 0.000000 0.000000
											CHANNELS 3 Xrotation Yrotation Zrotation
											JOINT mixamorig:RightHandRing4
											{
												OFFSET -6.518356 0.000000 0.000000
												CHANNELS 3 Xrotation Yrotation Zrotation
												End Site
												{
													OFFSET 1.636398 6.232697 0.982186
												}
											}
										}
									}
								}
								JOINT mixamorig:RightHandPinky1
								{
									OFFSET -20.411011 -0.303314 -8.561701
									CHANNELS 3 Xrotation Yrotation Zrotation
									JOINT mixamorig:RightHandPinky2
									{
										OFFSET -6.907349 0.000000 0.000000
										CHANNELS 3 Xrotation Yrotation Zrotation
										JOINT mixamorig:RightHandPinky3
										{
											OFFSET -4.623840 0.000000 0.000000
											CHANNELS 3 Xrotation Yrotation Zrotation
											JOINT mixamorig:RightHandPinky4
											{
												OFFSET -5.218353 0.000000 0.000000
												CHANNELS 3 Xrotation Yrotation Zrotation
												End Site
												{
													OFFSET 0.602097 5.118835 0.816273
												}
											}
										}
									}
								}
							}
						}
					}
				}
			}
		}
	}
	JOINT mixamorig:LeftUpLeg
	{
		OFFSET 18.168400 -13.561905 -0.039000
		CHANNELS 3 Xrotation Yrotation Zrotation
		JOINT mixamorig:LeftLeg
		{
			OFFSET 0.577358 -80.825211 -3.695000
			CHANNELS 3 Xrotation Yrotation Zrotation
			JOINT mixamorig:LeftFoot
			{
				OFFSET -0.577356 -83.370262 -6.520700
				CHANNELS 3 Xrotation Yrotation Zrotation
				JOINT mixamorig:LeftToeBase
				{
					OFFSET 0.750401 -20.798306 25.135401
					CHANNELS 3 Xrotation Yrotation Zrotation
					JOINT mixamorig:LeftToe_End
					{
						OFFSET -0.000500 0.001200 19.917799
						CHANNELS 3 Xrotation Yrotation Zrotation
						End Site
						{
							OFFSET 0.000000 19.917805 0.000000
						}
					}
				}
			}
		}
	}
	JOINT mixamorig:RightUpLeg
	{
		OFFSET -18.162500 -13.585098 -0.041000
		CHANNELS 3 Xrotation Yrotation Zrotation
		JOINT mixamorig:RightLeg
		{
			OFFSET -0.595024 -80.945297 -3.631900
			CHANNELS 3 Xrotation Yrotation Zrotation
			JOINT mixamorig:RightFoot
			{
				OFFSET 0.595024 -83.218193 -6.561200
				CHANNELS 3 Xrotation Yrotation Zrotation
				JOINT mixamorig:RightToeBase
				{
					OFFSET -0.753601 -20.807106 25.115000
					CHANNELS 3 Xrotation Yrotation Zrotation
					JOINT mixamorig:RightToe_End
					{
						OFFSET 0.000299 0.001700 19.918200
						CHANNELS 3 Xrotation Yrotation Zrotation
						End Site
						{
							OFFSET 0.000000 19.918203 0.000000
						}
					}
				}
			}
		}
	}
}
MOTION
Frames: 6
Frame Time: 0.033333
1.464684 184.862869 0.584313 -3.396311 -6.595994 7.140199 11.116007 2.614733 -6.419138 7.349173 0.304090 -0.686123 7.350455 0.369968 -0.665380 -15.660297 0.525714 1.054484 -13.581419 4.468040 -3.733362 -0.000000 -0.000000 -0.000000 -0.000000 -0.000000 -0.000000 -0.000000 -0.000000 -0.000000 -1.387177 7.494550 8.376758 17.501916 -33.167183 -30.252158 0.001088 -96.497760 0.001059 14.785717 -12.189913 -2.521181 0.536286 2.668721 -22.720776 0.203528 1.664951 -13.937344 0.150390 1.434105 -11.972940 -0.000002 0.000003 -0.000001 0.878106 12.629891 -5.171243 3.939033 7.948721 0.746806 1.374061 26.415407 4.686988 0.000000 -0.000001 -0.000002 0.426355 2.389530 -20.229716 0.159568 1.476752 -12.334591 0.147859 1.422008 -11.870456 -0.000002 0.000000 -0.000000 0.963584 3.518059 -30.626264 0.233822 1.782540 -14.944432 0.146399 1.415128 -11.812196 -0.000000 -0.000001 0.000002 4.970510 7.767393 -45.322864 0.118046 -2.749928 -11.386466 0.121160 1.288617 -10.742467 -0.000001 -0.000002 0.000001 -1.392531 -6.451149 5.396922 -24.042145 65.624478 66.176637 -0.000014 50.888126 -0.000004 25.890085 26.860151 -17.550005 1.401653 -4.191453 36.966954 1.227595 -3.950222 34.515500 0.437741 -2.432451 20.400182 0.000000 0.000002 -0.000002 2.389869 -18.008846 6.898369 4.637194 -8.634142 -0.225413 0.125399 -16.757459 -3.767197 0.000000 0.000000 0.000000 1.271391 -4.013002 35.146227 1.160250 -3.850668 33.525482 0.306818 -2.046496 17.050486 0.000001 0.000003 -0.000001 2.262565 -5.136281 47.524863 1.398455 -4.187218 36.923176 0.461342 -2.494967 20.949491 -0.000000 -0.000002 0.000002 4.464944 -6.491335 69.012600 1.254589 -3.989072 34.905262 0.318243 -2.083418 17.368075 0.000000 0.000002 0.000002 -22.026406 9.710457 -8.651861 45.958270 4.461701 -0.013503 -19.894782 -0.763833 2.985380 -0.467776 0.000000 -0.000000 -0.000000 0.000000 0.000000 -40.087162 7.743321 -3.179326 66.927740 5.802394 -2.610590 2.153524 -0.143510 4.739975 -20.566294 0.542435 -4.017081 0.000000 0.000000 -0.000000 
0.812107 183.520966 -4.492869 -1.776888 -3.380017 8.698921 9.584356 3.638479 -6.749436 6.131445 0.431684 -1.342198 6.136552 0.479111 -1.313937 -11.914961 -0.453008 1.859208 -13.176965 1.020280 -3.275032 -0.000000 0.000000 0.000000 -0.000000 0.000000 0.000000 -0.000000 0.000000 0.000000 -0.421332 3.767607 8.967275 17.322601 -40.429433 -25.846201 0.000896 -92.236534 0.000815 15.657343 -13.857289 0.545060 0.484729 2.542201 -21.586615 0.197742 1.641519 -13.737284 0.157933 1.469219 -12.270685 0.000002 0.000004 -0.000001 0.878104 12.629890 -5.171244 3.939031 7.948724 0.746808 1.374064 26.415413 4.686989 0.000002 0.000000 -0.000001 0.355718 2.188532 -18.461568 0.152509 1.444001 -12.056758 0.156322 1.461779 -12.207685 -0.000002 0.000000 -0.000003 0.917678 3.439491 -29.869787 0.239087 1.802178 -15.113014 0.157555 1.467434 -12.255589 -0.000004 -0.000004 0.000001 4.894028 7.748069 -44.758697 0.134594 -2.670279 -12.059715 0.134608 1.357528 -11.324607 -0.000006 -0.000001 0.000001 -1.302820 -6.284881 5.672137 -20.523149 59.133401 69.600973 0.000017 46.259942 -0.000007 29.694422 21.913622 -22.668296 1.165036 -3.857836 33.596358 1.136970 -3.815394 33.177357 0.424419 -2.396366 20.083971 0.000001 -0.000003 -0.000003 2.389867 -18.008852 6.898365 4.637198 -8.634139 -0.225413 0.125400 -16.757456 -3.767202 -0.000003 0.000000 -0.000001 0.945317 -3.505432 30.176025 1.084482 -3.734029 32.379926 0.302432 -2.032160 16.927227 -0.000001 0.000002 0.000001 2.039833 -4.923922 44.984999 1.333374 -4.099398 36.022281 0.453029 -2.473174 20.757824 -0.000002 0.000001 -0.000001 4.205855 -6.386571 66.702439 1.237425 -3.964425 34.657831 0.318748 -2.084970 17.381416 -0.000003 -0.000002 0.000001 -26.693491 9.024747 -10.635889 47.418479 3.080492 0.815850 -18.162296 -0.721168 3.114476 -0.467563 -0.000000 0.000000 0.000000 0.000000 0.000000 -37.376926 8.688547 -6.239071 74.197813 2.779905 -1.791478 3.841341 -0.044407 4.879825 -29.617865 0.484443 -2.468498 -0.000000 -0.000000 -0.000000 
-0.167206 182.748489 -9.069267 -0.161428 0.785979 9.452114 7.538786 4.575541 -6.630334 5.020141 0.542334 -1.917690 5.030533 0.572825 -1.885670 -8.479890 -1.548943 2.897523 -12.209919 -2.893797 -3.015014 -0.000000 -0.000000 -0.000000 -0.000000 -0.000000 -0.000000 -0.000000 -0.000000 -0.000000 0.471643 0.625276 9.422976 17.340436 -49.082040 -21.960141 0.000651 -86.782191 0.000589 16.686813 -16.217857 3.682038 0.418074 2.367001 -20.030544 0.182415 1.577506 -13.191389 0.161673 1.486224 -12.415014 -0.000004 -0.000001 0.000002 0.878102 12.629898 -5.171239 3.939037 7.948716 0.746803 1.374066 26.415407 4.686989 -0.000002 0.000001 0.000000 0.276535 1.935438 -16.261186 0.136909 1.369048 -11.422139 0.161610 1.485961 -12.412830 0.000001 0.000000 -0.000000 0.843119 3.306506 -28.602524 0.233943 1.782988 -14.948142 0.165743 1.504612 -12.571341 0.000003 0.000002 -0.000002 4.720816 7.701836 -43.470193 0.145129 -2.621927 -12.469258 0.147334 1.419570 -11.849676 -0.000003 0.000001 -0.000001 -1.202484 -6.001864 5.876691 -15.281285 51.662919 71.963283 0.000003 42.671942 -0.000013 31.306070 16.854439 -24.808285 0.891840 -3.411939 29.289241 0.989638 -3.580410 30.893205 0.393003 -2.308644 19.318189 -0.000001 -0.000001 -0.000000 2.389869 -18.008847 6.898366 4.637197 -8.634142 -0.225408 0.125401 -16.757461 -3.767191 -0.000002 0.000002 -0.000007 0.625027 -2.885975 24.435222 0.948628 -3.511083 30.230014 0.283836 -1.970081 16.394923 -0.000000 -0.000003 0.000001 1.719355 -4.582063 41.118726 1.203213 -3.914585 34.159801 0.428812 -2.408340 20.188767 0.000001 0.000001 0.000001 3.731902 -6.162224 62.367974 1.164557 -3.857160 33.589579 0.313099 -2.066836 17.225438 0.000000 0.000000 -0.000000 -30.976267 7.653424 -12.385497 47.924278 1.232463 1.588649 -15.986428 -0.651992 3.211601 -0.467341 -0.000000 0.000001 -0.000000 0.000000 0.000000 -31.718244 7.573494 -9.192422 76.560410 3.443449 -0.972150 4.585888 -0.040996 5.904118 -32.715527 0.823427 -3.572394 0.000000 0.000000 0.000000 
-1.360733 182.929901 -12.980366 0.840238 5.603754 9.271049 5.523169 5.339795 -6.189490 4.214992 0.625774 -2.380491 4.230669 0.645592 -2.346896 -5.904407 -2.647035 3.974552 -10.889593 -6.935527 -2.684004 0.000000 -0.000000 0.000000 0.000000 -0.000000 0.000000 0.000000 -0.000000 0.000000 1.111193 -1.679918 9.362593 17.134310 -59.111824 -19.339693 -0.000067 -79.322101 -0.000051 18.132853 -19.177163 7.030817 0.342734 2.149268 -18.118445 0.155449 1.457719 -12.173181 0.158833 1.473360 -12.305937 0.000001 -0.000002 0.000004 0.878099 12.629892 -5.171241 3.939033 7.948722 0.746803 1.374067 26.415415 4.686987 0.000001 -0.000000 -0.000000 0.201392 1.656349 -13.863920 0.111367 1.235850 -10.297618 0.160184 1.479532 -12.358177 -0.000002 0.000001 -0.000002 0.738552 3.107359 -26.733500 0.212885 1.702195 -14.255723 0.168625 1.517536 -12.681199 0.000001 -0.000002 0.000002 4.416686 7.610496 -41.187475 0.142286 -2.634817 -12.360115 0.158678 1.472667 -12.300017 -0.000001 -0.000002 0.000001 -1.164008 -5.896125 5.951626 -8.759047 44.098184 73.442716 -0.000016 40.759263 0.000018 31.523908 12.628926 -24.116930 0.638528 -2.915500 24.702339 0.809982 -3.261950 27.882893 0.345217 -2.167699 18.095195 0.000002 0.000001 -0.000001 2.389873 -18.008847 6.898370 4.637199 -8.634139 -0.225413 0.125399 -16.757459 -3.767204 0.000000 0.000001 -0.000001 0.376608 -2.261432 18.907294 0.776022 -3.197057 27.280421 0.251152 -1.855528 15.416437 0.000002 0.000003 -0.000001 1.360878 -4.136863 36.405342 1.023737 -3.636685 31.434890 0.387794 -2.293804 19.188955 -0.000002 -0.000002 0.000001 3.112160 -5.797626 56.424367 1.035908 -3.656479 31.626341 0.297551 -2.016070 16.789230 0.000000 -0.000000 0.000000 -33.758391 5.892984 -13.497524 47.037997 -1.419545 2.000863 -13.319729 -0.586487 3.529503 -0.467106 -0.000000 -0.000000 -0.000000 0.000000 0.000000 -23.611298 4.557669 -10.563417 73.625239 4.152651 -0.447952 4.634242 -0.068572 7.169659 -32.560099 1.405754 -5.727181 0.000001 -0.000000 0.000000 
-2.351021 183.919632 -16.476830 1.195610 9.814410 8.546689 4.108472 5.599573 -5.496395 3.918091 0.644762 -2.580836 3.936399 0.662703 -2.547227 -4.813470 -3.427762 4.522684 -9.700492 -10.209360 -1.955777 -0.000000 0.000000 0.000000 -0.000000 0.000000 0.000000 -0.000000 0.000000 0.000000 1.232688 -2.641416 8.201210 14.962837 -69.332246 -20.197498 -0.000065 -69.487776 -0.000043 21.095512 -22.457539 11.812661 0.277533 1.938853 -16.290824 0.122646 1.296356 -10.807892 0.146756 1.416884 -11.826917 -0.000005 0.000001 -0.000000 0.878097 12.629891 -5.171242 3.939035 7.948722 0.746807 1.374063 26.415412 4.686991 0.000000 -0.000000 0.000001 0.147554 1.420631 -11.858856 0.083251 1.069666 -8.900521 0.148188 1.423684 -11.884486 -0.000004 -0.000003 0.000004 0.629982 2.882047 -24.655827 0.176766 1.553222 -12.984510 0.161850 1.487056 -12.422140 -0.000000 0.000003 0.000001 4.044347 7.480340 -38.352626 0.118721 -2.746620 -11.414458 0.163195 1.493121 -12.473652 0.000001 -0.000000 0.000001 -1.154519 -6.019863 5.482607 -1.914240 37.993552 73.180573 -0.000014 41.508952 0.000013 30.876078 10.385552 -21.261621 0.467793 -2.511714 21.096871 0.638816 -2.916100 24.707689 0.287391 -1.982102 16.497929 0.000001 -0.000000 0.000001 2.389868 -18.008847 6.898375 4.637196 -8.634140 -0.225411 0.125405 -16.757458 -3.767202 0.000000 0.000000 -0.000001 0.248302 -1.845096 15.327513 0.608209 -2.848679 24.098895 0.207417 -1.688890 14.001385 0.000003 0.000001 0.000001 1.054823 -3.686941 31.921388 0.828226 -3.296233 28.202669 0.332872 -2.129495 17.765259 0.000000 -0.000002 -0.000004 2.490167 -5.334884 50.018602 0.862253 -3.358753 28.788322 0.269160 -1.919542 15.962816 -0.000003 0.000000 0.000001 -34.907734 4.028776 -14.159472 44.864142 -3.908844 2.225100 -10.345080 -0.486382 3.773142 -0.466867 0.000002 -0.000001 -0.000000 -0.000000 0.000000 -14.214312 1.233062 -9.780543 65.747196 3.538470 -0.480629 5.135193 -0.045356 8.334548 -34.696671 1.748179 -7.018165 -0.000000 0.000001 -0.000000 
-3.073820 185.109543 -20.064182 1.785249 12.618605 7.500927 3.103460 5.189125 -4.489887 3.977969 0.585554 -2.451479 3.994781 0.604593 -2.419463 -4.905719 -3.645021 4.129055 -9.203521 -11.949080 -1.082804 -0.000000 -0.000000 -0.000000 -0.000000 -0.000000 -0.000000 -0.000000 -0.000000 -0.000000 0.899126 -2.310392 6.059565 6.296136 -77.373162 -29.142594 -0.000025 -58.991736 -0.000041 26.223070 -24.717463 19.013215 0.226241 1.753930 -14.698973 0.096072 1.148502 -9.562450 0.130159 1.335141 -11.135429 0.000001 -0.000003 0.000003 0.878101 12.629898 -5.171242 3.939031 7.948725 0.746804 1.374064 26.415413 4.686991 0.000001 0.000000 0.000001 0.104832 1.199340 -9.990278 0.064312 0.940819 -7.820838 0.131785 1.343353 -11.204908 0.000000 -0.000002 0.000003 0.547982 2.696452 -22.970674 0.142051 1.394152 -11.634468 0.146803 1.417097 -11.828872 0.000002 -0.000002 0.000002 3.761384 7.367349 -36.162836 0.088141 -2.907660 -10.057615 0.155400 1.457457 -12.170964 0.000001 -0.000002 0.000002 -1.002284 -5.848012 4.152327 4.047953 34.643358 71.095507 0.000003 44.626014 0.000001 29.490879 10.193636 -18.151426 0.403043 -2.337103 19.566195 0.522705 -2.649457 22.316050 0.233171 -1.789082 14.851095 0.000000 0.000000 0.000001 2.389867 -18.008847 6.898369 4.637197 -8.634140 -0.225414 0.125405 -16.757459 -3.767199 0.000000 -0.000002 0.000001 0.227698 -1.768276 14.674255 0.497810 -2.588131 21.771962 0.163223 -1.500598 12.413030 0.000001 0.000002 -0.000002 0.882711 -3.395659 29.135698 0.669692 -2.982209 25.307721 0.275112 -1.940162 16.139211 -0.000001 -0.000001 0.000001 2.070204 -4.953964 45.337553 0.685186 -3.014701 25.604221 0.229792 -1.776219 14.741886 -0.000003 0.000003 -0.000000 -35.894386 2.070857 -14.517033 42.182456 -5.597367 2.410194 -7.331055 -0.350258 3.646356 -0.466599 -0.000001 0.000000 -0.000000 -0.000000 0.000000 -5.540681 -0.957620 -7.469280 54.347378 2.280844 -1.193072 5.794367 0.011119 8.915236 -41.331910 1.705216 -7.104505 0.000001 0.000001 -0.000000 
